<svg xmlns="http://www.w3.org/2000/svg" xmlns:xlink="http://www.w3.org/1999/xlink" width="257" height="257" viewBox="0 0 257 257">
  <defs>
    <circle id="logo-a" cx="128.5" cy="128.5" r="125"/>
  </defs>
  <g fill="none" fill-rule="evenodd">
    <circle cx="128" cy="128" r="125" fill="#FFF" transform="translate(.5 .5)"/>
    <mask id="logo-b" fill="#fff">
      <use xlink:href="#logo-a"/>
    </mask>
    <g mask="url(#logo-b)">
      <g transform="translate(38 46)">
        <path d="M89,103.5 L89,104.823944 C89.3309859,108.795775 90.6549296,112.43662 92.971831,116.077465 C95.2887324,119.71831 98.2676056,122.366197 102.239437,124.352113 C105.549296,126.007042 109.190141,127 112.5,127 L113.492958,127 C119.78169,126.669014 125.077465,123.690141 129.711268,118.725352 C133.683099,114.091549 136,109.126761 136,103.830986 C136,103.169014 136,102.176056 136,101.514085 C135.669014,97.5422535 134.34507,93.9014085 132.028169,90.5915493 C129.711268,87.2816901 127.06338,84.6338028 123.422535,82.6478873 C120.112676,80.9929577 116.471831,80 112.5,80 L112.169014,80 C107.866197,80 103.894366,81.3239437 100.584507,83.6408451 C96.943662,85.9577465 93.9647887,89.2676056 91.9788732,92.9084507 C89.9929577,95.8873239 89,99.8591549 89,103.5 Z"/>
        <path fill="#F7761F" fill-rule="nonzero" d="M112.794926,146.206501 C120.05074,146.206501 126.976744,144.552581 133.572939,140.913958 C140.498943,137.275335 145.775899,131.982792 149.733615,125.697897 C153.691332,119.082218 156,112.135755 156,104.196941 L156,103.866157 C156,96.2581262 154.021142,88.9808795 150.393235,82.3652008 C146.435518,75.749522 141.158562,70.456979 134.562368,66.4875717 C129.615222,63.5105163 124.338266,61.5258126 118.401691,60.8642447 L118.401691,39.6940727 C124.008457,37.0478011 127.636364,31.7552581 127.636364,25.1395793 C127.636364,16.208413 120.38055,9.26195029 111.805497,9.26195029 C102.900634,9.26195029 95.97463,16.5391969 95.97463,25.1395793 C95.97463,31.7552581 99.9323467,37.0478011 105.209302,39.6940727 L105.209302,60.8642447 C100.262156,61.5258126 95.6448203,63.1797323 91.0274841,65.1644359 C81.7928118,58.2179732 52.1099366,35.3938815 34.6300211,22.1625239 C34.9598309,20.5086042 35.2896406,19.1854685 35.2896406,17.5315488 C35.2896406,7.60803059 27.3742072,0 17.4799154,0 C7.58562368,0 0,7.93881453 0,17.5315488 C0,27.4550669 7.9154334,35.0630975 17.4799154,35.0630975 C20.7780127,35.0630975 23.7463002,34.0707457 26.384778,32.416826 L30.012685,35.0630975 L80.8033827,71.7801147 C78.1649049,74.0956023 75.8562368,77.0726577 73.8773784,80.0497132 C69.9196617,86.334608 67.6109937,93.6118547 67.6109937,101.219885 L67.6109937,102.873805 C67.6109937,108.166348 68.6004228,113.458891 70.2494715,118.089866 C71.8985201,122.390057 73.8773784,126.028681 76.845666,129.667304 L60.02537,146.868069 C58.3763214,146.206501 57.0570825,145.875717 55.4080338,145.875717 C51.7801268,145.875717 48.4820296,147.198853 45.8435518,149.845124 C43.205074,152.491396 41.8858351,155.799235 41.8858351,159.437859 C41.8858351,163.076482 43.205074,166.384321 45.8435518,169.030593 C48.4820296,171.676864 51.7801268,173 55.4080338,173 C59.0359408,173 62.3340381,171.676864 64.9725159,169.030593 C67.6109937,166.384321 68.9302326,163.076482 68.9302326,159.437859 C68.9302326,158.114723 68.6004228,156.791587 68.2706131,155.468451 L85.7505285,137.936902 C88.0591966,139.590822 90.6976744,140.913958 93.3361522,142.237094 C98.9429175,144.552581 104.879493,145.875717 111.475687,146.206501 L112.794926,146.206501 L112.794926,146.206501 Z M99.602537,83.6883365 C103.230444,81.3728489 107.188161,80.0497132 111.145877,80.0497132 L111.475687,80.0497132 C115.433404,80.0497132 119.061311,81.042065 122.359408,82.6959847 C125.987315,84.6806883 128.625793,87.3269598 130.934461,90.6347992 C133.243129,93.9426386 134.232558,97.581262 134.892178,101.550669 C134.892178,102.212237 134.892178,103.204589 134.892178,103.866157 C134.892178,109.1587 132.913319,114.120459 128.625793,118.751434 C124.008457,124.043977 118.401691,126.690249 112.465116,127.021033 L111.475687,127.021033 C107.84778,127.021033 104.549683,126.028681 101.251586,124.374761 C97.6236786,122.390057 94.3255814,119.743786 92.0169133,116.105163 C89.7082452,112.797323 88.3890063,108.827916 88.0591966,104.858509 L88.0591966,103.535373 C88.0591966,99.5659656 89.0486258,95.9273423 91.0274841,92.2887189 C93.3361522,88.9808795 95.97463,86.0038241 99.602537,83.6883365 Z"/>
      </g>
    </g>
  </g>
</svg>
